<svg width="17" height="17" viewBox="0 0 17 17" fill="none" xmlns="http://www.w3.org/2000/svg">
<path d="M10.625 12.0417H9.20833V9.20833H6.375V4.95833H7.79167V7.79167H9.20833V4.95833H10.625M13.4583 2.125H3.54167C3.16594 2.125 2.80561 2.27426 2.53993 2.53993C2.27426 2.80561 2.125 3.16594 2.125 3.54167V13.4583C2.125 13.8341 2.27426 14.1944 2.53993 14.4601C2.80561 14.7257 3.16594 14.875 3.54167 14.875H13.4583C13.8341 14.875 14.1944 14.7257 14.4601 14.4601C14.7257 14.1944 14.875 13.8341 14.875 13.4583V3.54167C14.875 3.16594 14.7257 2.80561 14.4601 2.53993C14.1944 2.27426 13.8341 2.125 13.4583 2.125Z" fill="#5CA9BE"/>
</svg>
