<svg width="23" height="23" viewBox="0 0 23 23" fill="none" xmlns="http://www.w3.org/2000/svg">
<path d="M10.0625 13.375C10.0625 13.7562 9.91105 14.1219 9.64147 14.3915C9.37188 14.661 9.00625 14.8125 8.625 14.8125C8.24375 14.8125 7.87812 14.661 7.60853 14.3915C7.33895 14.1219 7.1875 13.7562 7.1875 13.375C7.1875 12.9938 7.33895 12.6281 7.60853 12.3585C7.87812 12.089 8.24375 11.9375 8.625 11.9375C9.00625 11.9375 9.37188 12.089 9.64147 12.3585C9.91105 12.6281 10.0625 12.9938 10.0625 13.375ZM14.375 14.8125C14.7562 14.8125 15.1219 14.661 15.3915 14.3915C15.661 14.1219 15.8125 13.7562 15.8125 13.375C15.8125 12.9938 15.661 12.6281 15.3915 12.3585C15.1219 12.089 14.7562 11.9375 14.375 11.9375C13.9938 11.9375 13.6281 12.089 13.3585 12.3585C13.089 12.6281 12.9375 12.9938 12.9375 13.375C12.9375 13.7562 13.089 14.1219 13.3585 14.3915C13.6281 14.661 13.9938 14.8125 14.375 14.8125ZM8.625 5.46875C8.625 5.27813 8.70073 5.09531 8.83552 4.96052C8.97031 4.82573 9.15313 4.75 9.34375 4.75H13.6562C13.8469 4.75 14.0297 4.82573 14.1645 4.96052C14.2993 5.09531 14.375 5.27813 14.375 5.46875C14.375 5.65937 14.2993 5.84219 14.1645 5.97698C14.0297 6.11177 13.8469 6.1875 13.6562 6.1875H9.34375C9.15313 6.1875 8.97031 6.11177 8.83552 5.97698C8.70073 5.84219 8.625 5.65937 8.625 5.46875ZM2.875 5.46875C2.875 4.51563 3.25363 3.60154 3.92759 2.92759C4.60154 2.25363 5.51563 1.875 6.46875 1.875H16.5312C17.4844 1.875 18.3985 2.25363 19.0724 2.92759C19.7464 3.60154 20.125 4.51563 20.125 5.46875V14.0938C20.125 15.0469 19.7464 15.961 19.0724 16.6349C18.3985 17.3089 17.4844 17.6875 16.5312 17.6875H15.6443L18.3253 19.2199C18.4095 19.2654 18.4839 19.3274 18.5439 19.4021C18.6039 19.4768 18.6484 19.5627 18.6747 19.6549C18.701 19.747 18.7086 19.8435 18.6971 19.9386C18.6855 20.0337 18.6551 20.1256 18.6076 20.2088C18.56 20.292 18.4963 20.3648 18.4202 20.4231C18.3441 20.4813 18.2571 20.5237 18.1644 20.5478C18.0717 20.5719 17.9751 20.5772 17.8802 20.5635C17.7854 20.5497 17.6943 20.5171 17.6122 20.4676L12.7463 17.6875H10.2537L5.38775 20.4676C5.22264 20.5569 5.02918 20.578 4.84871 20.5264C4.66824 20.4749 4.51508 20.3549 4.42197 20.1919C4.32885 20.029 4.30317 19.8361 4.3504 19.6544C4.39764 19.4728 4.51405 19.3168 4.67475 19.2199L7.35569 17.6875H6.46875C5.51563 17.6875 4.60154 17.3089 3.92759 16.6349C3.25363 15.961 2.875 15.0469 2.875 14.0938V5.46875ZM4.3125 10.5V14.0938C4.3125 14.6656 4.53968 15.2141 4.94405 15.6184C5.34843 16.0228 5.89688 16.25 6.46875 16.25H16.5312C17.1031 16.25 17.6516 16.0228 18.0559 15.6184C18.4603 15.2141 18.6875 14.6656 18.6875 14.0938V10.5H4.3125ZM18.6875 9.0625V5.46875C18.6875 4.89688 18.4603 4.34843 18.0559 3.94405C17.6516 3.53968 17.1031 3.3125 16.5312 3.3125H6.46875C5.89688 3.3125 5.34843 3.53968 4.94405 3.94405C4.53968 4.34843 4.3125 4.89688 4.3125 5.46875V9.0625H18.6875Z" fill="#757575"/>
</svg>
