<svg width="48" height="48" viewBox="0 0 48 48" fill="none" xmlns="http://www.w3.org/2000/svg">
<path d="M25 32C25 32 25.904 30 27.504 30C28.95 30 29.004 31.634 29.002 31.948L29 32.052V37.052C29.004 37.366 28.95 39 27.504 39C25.904 39 25 37 25 37M25 25V40" stroke="#757575" stroke-width="2"/>
<path d="M38.548 21.848C35.02 21.498 28.838 21 24 21C19.16 21 12.98 21.498 9.452 21.848C9.0312 21.8868 8.63517 22.0641 8.32605 22.3522C8.01693 22.6404 7.81221 23.023 7.744 23.44C7.408 25.54 7 28.872 7 32C7 35.288 7.45 39.702 7.796 42.466C7.85005 42.9045 8.05217 43.3115 8.36894 43.6195C8.68571 43.9275 9.09813 44.1182 9.538 44.16C13.078 44.51 19.2 45 24 45C28.8 45 34.92 44.51 38.46 44.16C38.9002 44.1187 39.3131 43.9282 39.6303 43.6201C39.9475 43.312 40.1499 42.9048 40.204 42.466C40.55 39.702 41 35.288 41 32C41 28.872 40.592 25.54 40.256 23.44C40.1878 23.023 39.9831 22.6404 39.6739 22.3522C39.3648 22.0641 38.9688 21.8868 38.548 21.848Z" stroke="#757575" stroke-width="2" stroke-linejoin="round"/>
<path d="M10 26H16M13 26V40M29 6V15C29 17 30.258 17 30.258 17C31.362 17 33 15.104 33 14M33 18V6M17 29V37C17 39 18.258 39 18.258 39C19.362 39 21 37.104 21 36M21 40V29" stroke="#757575" stroke-width="2"/>
<path d="M12 3L16 11M16 11L20 3M16 11V18" stroke="#757575" stroke-width="2" stroke-linejoin="round"/>
<path d="M25 15V9C25 8.46957 24.7893 7.96086 24.4142 7.58579C24.0391 7.21071 23.5304 7 23 7C22.4696 7 21.9609 7.21071 21.5858 7.58579C21.2107 7.96086 21 8.46957 21 9V15C21 15.5304 21.2107 16.0391 21.5858 16.4142C21.9609 16.7893 22.4696 17 23 17C23.5304 17 24.0391 16.7893 24.4142 16.4142C24.7893 16.0391 25 15.5304 25 15Z" stroke="#757575" stroke-width="2"/>
<path d="M37 37C37 37.5304 36.7893 38.0391 36.4142 38.4142C36.0391 38.7893 35.5304 39 35 39C34.4696 39 33.9609 38.7893 33.5858 38.4142C33.2107 38.0391 33 37.5304 33 37V34M33 34V32C33 31.4696 33.2107 30.9609 33.5858 30.5858C33.9609 30.2107 34.4696 30 35 30C35.5304 30 36.0391 30.2107 36.4142 30.5858C36.7893 30.9609 37 31.4696 37 32V34H33Z" stroke="#757575" stroke-width="2" stroke-linejoin="round"/>
</svg>
