<svg width="23" height="23" viewBox="0 0 23 23" fill="none" xmlns="http://www.w3.org/2000/svg">
<path d="M6.46875 2.875C4.8875 2.875 3.59375 4.16875 3.59375 5.75V9.34375H2.15625V11.5H3.59375V19.4062C3.59375 19.8016 3.91719 20.125 4.3125 20.125H6.46875L6.716 19.4062H16.284L16.5312 20.125H18.6875C19.0828 20.125 19.4062 19.8016 19.4062 19.4062V11.5H20.8438V9.34375H19.4062V5.75C19.4062 4.16875 18.1125 2.875 16.5312 2.875H6.46875ZM6.46875 4.3125H16.5312C17.3341 4.3125 17.9688 4.94716 17.9688 5.75H5.03125C5.03125 4.94716 5.66591 4.3125 6.46875 4.3125ZM5.03125 7.1875H10.7812V12.2188H5.03125V7.1875ZM12.2188 7.1875H17.9688V12.2188H12.2188V7.1875ZM5.03125 13.6562H17.9688V17.9688H5.03125V13.6562ZM5.75 15.0938V16.5312H8.625V15.0938H5.75ZM14.375 15.0938V16.5312H17.25V15.0938H14.375Z" fill="#757575"/>
</svg>
