<svg width="48" height="48" viewBox="0 0 48 48" fill="none" xmlns="http://www.w3.org/2000/svg">
<path d="M20 20H22M20 30H28M5 24C5 15.044 5 10.564 7.782 7.782C10.564 5 15.042 5 24 5C32.956 5 37.436 5 40.218 7.782C43 10.564 43 15.042 43 24C43 32.956 43 37.436 40.218 40.218C37.436 43 32.958 43 24 43C15.044 43 10.564 43 7.782 40.218C5 37.436 5 32.958 5 24Z" stroke="#757575" stroke-width="2.5" stroke-linecap="round" stroke-linejoin="round"/>
<path d="M30.1694 23.4689V21.6423C30.1694 18.0524 30.1694 16.2565 29.2571 14.9992C27.5321 12.6167 24.1799 13.0269 21.5847 13.0269C18.9896 13.0269 15.6373 12.6167 13.9104 15.0011C13 16.2584 13 18.0505 13 21.6404V26.4263C13 30.9381 13 33.194 14.3972 34.597C15.7945 36 18.0408 36 22.5392 36H29.65C34.6295 36 36.6209 32.4963 35.8331 27.5073C35.3635 24.5365 32.801 23.4689 30.1694 23.4689Z" stroke="#757575" stroke-width="2" stroke-linecap="round" stroke-linejoin="round"/>
</svg>
