<svg width="17" height="17" viewBox="0 0 17 17" fill="none" xmlns="http://www.w3.org/2000/svg">
<path d="M10.625 7.79167C10.625 8.16739 10.4757 8.52772 10.2101 8.7934C9.94439 9.05908 9.58406 9.20833 9.20833 9.20833H7.79167V10.625H10.625V12.0417H6.375V9.20833C6.375 8.83261 6.52426 8.47228 6.78993 8.2066C7.05561 7.94092 7.41594 7.79167 7.79167 7.79167H9.20833V6.375H6.375V4.95833H9.20833C9.58406 4.95833 9.94439 5.10759 10.2101 5.37327C10.4757 5.63894 10.625 5.99928 10.625 6.375M13.4583 2.125H3.54167C3.16594 2.125 2.80561 2.27426 2.53993 2.53993C2.27426 2.80561 2.125 3.16594 2.125 3.54167V13.4583C2.125 13.8341 2.27426 14.1944 2.53993 14.4601C2.80561 14.7257 3.16594 14.875 3.54167 14.875H13.4583C13.8341 14.875 14.1944 14.7257 14.4601 14.4601C14.7257 14.1944 14.875 13.8341 14.875 13.4583V3.54167C14.875 3.16594 14.7257 2.80561 14.4601 2.53993C14.1944 2.27426 13.8341 2.125 13.4583 2.125Z" fill="#4AA932"/>
</svg>
