<svg width="48" height="48" viewBox="0 0 48 48" fill="none" xmlns="http://www.w3.org/2000/svg">
<path d="M6 22C6 14.458 6 10.686 8.344 8.344C10.688 6.002 14.458 6 22 6H26C33.542 6 37.314 6 39.656 8.344C41.998 10.688 42 14.458 42 22V26C42 33.542 42 37.314 39.656 39.656C37.312 41.998 33.542 42 26 42H22C14.458 42 10.686 42 8.344 39.656C6.002 37.312 6 33.542 6 26V22Z" stroke="#757575" stroke-width="3"/>
<path d="M33 18C34.6569 18 36 16.6569 36 15C36 13.3431 34.6569 12 33 12C31.3431 12 30 13.3431 30 15C30 16.6569 31.3431 18 33 18Z" fill="#757575"/>
<path d="M24 30C27.3137 30 30 27.3137 30 24C30 20.6863 27.3137 18 24 18C20.6863 18 18 20.6863 18 24C18 27.3137 20.6863 30 24 30Z" stroke="#757575" stroke-width="3"/>
</svg>
