<svg width="18" height="19" viewBox="0 0 18 19" fill="none" xmlns="http://www.w3.org/2000/svg">
<path d="M8.9625 13.5342C9.225 13.5342 9.44687 13.4436 9.62812 13.2623C9.80937 13.0811 9.9 12.8592 9.9 12.5967C9.9 12.3342 9.80937 12.1123 9.62812 11.9311C9.44687 11.7498 9.225 11.6592 8.9625 11.6592C8.7 11.6592 8.47812 11.7498 8.29687 11.9311C8.11562 12.1123 8.025 12.3342 8.025 12.5967C8.025 12.8592 8.11562 13.0811 8.29687 13.2623C8.47812 13.4436 8.7 13.5342 8.9625 13.5342ZM8.2875 10.6467H9.675C9.675 10.2342 9.72187 9.90918 9.81562 9.67168C9.90937 9.43418 10.175 9.10918 10.6125 8.69668C10.9375 8.37168 11.1937 8.0623 11.3812 7.76855C11.5687 7.4748 11.6625 7.12168 11.6625 6.70918C11.6625 6.00918 11.4062 5.47168 10.8937 5.09668C10.3812 4.72168 9.775 4.53418 9.075 4.53418C8.3625 4.53418 7.78437 4.72168 7.34062 5.09668C6.89687 5.47168 6.5875 5.92168 6.4125 6.44668L7.65 6.93418C7.7125 6.70918 7.85312 6.46543 8.07187 6.20293C8.29062 5.94043 8.625 5.80918 9.075 5.80918C9.475 5.80918 9.775 5.91855 9.975 6.1373C10.175 6.35605 10.275 6.59668 10.275 6.85918C10.275 7.10918 10.2 7.34355 10.05 7.5623C9.9 7.78105 9.7125 7.98418 9.4875 8.17168C8.9375 8.65918 8.6 9.02793 8.475 9.27793C8.35 9.52793 8.2875 9.98418 8.2875 10.6467ZM9 16.5342C7.9625 16.5342 6.9875 16.3373 6.075 15.9436C5.1625 15.5498 4.36875 15.0154 3.69375 14.3404C3.01875 13.6654 2.48437 12.8717 2.09062 11.9592C1.69687 11.0467 1.5 10.0717 1.5 9.03418C1.5 7.99668 1.69687 7.02168 2.09062 6.10918C2.48437 5.19668 3.01875 4.40293 3.69375 3.72793C4.36875 3.05293 5.1625 2.51855 6.075 2.1248C6.9875 1.73105 7.9625 1.53418 9 1.53418C10.0375 1.53418 11.0125 1.73105 11.925 2.1248C12.8375 2.51855 13.6312 3.05293 14.3062 3.72793C14.9812 4.40293 15.5156 5.19668 15.9094 6.10918C16.3031 7.02168 16.5 7.99668 16.5 9.03418C16.5 10.0717 16.3031 11.0467 15.9094 11.9592C15.5156 12.8717 14.9812 13.6654 14.3062 14.3404C13.6312 15.0154 12.8375 15.5498 11.925 15.9436C11.0125 16.3373 10.0375 16.5342 9 16.5342Z" fill="#C6C6C6"/>
</svg>
