<svg width="18" height="18" viewBox="0 0 18 18" fill="none" xmlns="http://www.w3.org/2000/svg">
<path d="M12 17.4616L6 15.3616L1.69625 17.0268C1.40142 17.141 1.12833 17.1083 0.877 16.9288C0.625667 16.7493 0.5 16.5038 0.5 16.1923V3.07708C0.5 2.87958 0.552917 2.70232 0.65875 2.54532C0.764417 2.38832 0.912833 2.27457 1.104 2.20407L6 0.538574L12 2.63857L16.3038 0.973325C16.5986 0.859158 16.8717 0.886992 17.123 1.05683C17.3743 1.22666 17.5 1.46416 17.5 1.76933V14.9616C17.5 15.1654 17.4423 15.3442 17.327 15.4981C17.2115 15.6519 17.0551 15.7641 16.8577 15.8346L12 17.4616ZM11.25 15.6271V3.92708L6.75 2.35383V14.0538L11.25 15.6271ZM12.75 15.6271L16 14.5501V2.70007L12.75 3.92708V15.6271ZM2 15.3001L5.25 14.0538V2.35383L2 3.45007V15.3001Z" fill="#1D1D1D"/>
</svg>
