<svg width="20" height="12" viewBox="0 0 20 12" fill="none" xmlns="http://www.w3.org/2000/svg">
<path d="M2.30775 11.5C1.80258 11.5 1.375 11.325 1.025 10.975C0.675 10.625 0.5 10.1974 0.5 9.69225V2.30775C0.5 1.80258 0.675 1.375 1.025 1.025C1.375 0.675 1.80258 0.5 2.30775 0.5H17.6923C18.1974 0.5 18.625 0.675 18.975 1.025C19.325 1.375 19.5 1.80258 19.5 2.30775V9.69225C19.5 10.1974 19.325 10.625 18.975 10.975C18.625 11.325 18.1974 11.5 17.6923 11.5H2.30775ZM2.30775 10H17.6923C17.7693 10 17.8398 9.96792 17.9038 9.90375C17.9679 9.83975 18 9.76925 18 9.69225V2.30775C18 2.23075 17.9679 2.16025 17.9038 2.09625C17.8398 2.03208 17.7693 2 17.6923 2H14.75V5.61525H13.25V2H10.75V5.61525H9.25V2H6.75V5.61525H5.25V2H2.30775C2.23075 2 2.16025 2.03208 2.09625 2.09625C2.03208 2.16025 2 2.23075 2 2.30775V9.69225C2 9.76925 2.03208 9.83975 2.09625 9.90375C2.16025 9.96792 2.23075 10 2.30775 10Z" fill="#1D1D1D"/>
</svg>
