<svg width="20" height="20" viewBox="0 0 20 20" fill="none" xmlns="http://www.w3.org/2000/svg">
<path d="M9.19897 0.734375C13.8934 0.734375 17.699 4.53995 17.699 9.23438C17.699 11.2928 16.9663 13.1796 15.7488 14.6504L19.0671 17.9688C19.3791 18.2811 19.3792 18.7873 19.0671 19.0996C18.7547 19.412 18.2477 19.412 17.9353 19.0996L14.6179 15.7822C13.1468 17.0011 11.2587 17.7344 9.19897 17.7344C4.50455 17.7344 0.698975 13.9288 0.698975 9.23438C0.698975 4.53995 4.50455 0.734375 9.19897 0.734375ZM9.19897 2.33398C5.38821 2.33398 2.29858 5.42361 2.29858 9.23438C2.29858 13.0451 5.38821 16.1348 9.19897 16.1348C11.0154 16.1348 12.666 15.4305 13.8982 14.2832C13.9355 14.2097 13.9852 14.1405 14.0466 14.0791C14.1084 14.0174 14.1778 13.968 14.2517 13.9307C15.3971 12.6989 16.0994 11.0491 16.0994 9.23438C16.0994 5.42361 13.0097 2.33398 9.19897 2.33398Z" fill="white"/>
</svg>
