<svg width="20" height="21" viewBox="0 0 20 21" fill="none" xmlns="http://www.w3.org/2000/svg">
<path d="M9.97959 11.1176C9.68334 11.1176 9.42945 11.0103 9.21792 10.7959C9.00639 10.5813 8.90063 10.326 8.90063 10.0299C8.90063 9.7336 9.00785 9.47971 9.2223 9.26819C9.43688 9.05666 9.69223 8.95089 9.98834 8.95089C10.2846 8.95089 10.5385 9.05812 10.75 9.27256C10.9615 9.48714 11.0673 9.74249 11.0673 10.0386C11.0673 10.3349 10.9601 10.5887 10.7456 10.8003C10.531 11.0118 10.2757 11.1176 9.97959 11.1176ZM9.98396 16.6176C8.15702 16.6176 6.59959 15.9771 5.31167 14.6961C4.02375 13.4151 3.38945 11.8612 3.40875 10.0342H4.47604C4.51979 11.5567 5.07132 12.854 6.13063 13.9261C7.18993 14.9982 8.47438 15.5342 9.98396 15.5342C11.516 15.5342 12.8158 15.001 13.8831 13.9346C14.9504 12.8683 15.484 11.5696 15.484 10.0388C15.484 8.50798 14.9504 7.20784 13.8831 6.13839C12.8158 5.06895 11.516 4.53423 9.98396 4.53423C9.21257 4.53423 8.48104 4.69131 7.78938 5.00548C7.09757 5.31951 6.47813 5.7543 5.93104 6.30985H8.04813V7.39319H3.81729V3.16235H4.90063V5.88673C5.53396 5.1152 6.29139 4.51638 7.17292 4.09027C8.05445 3.66402 8.99146 3.45089 9.98396 3.45089C10.8979 3.45089 11.7538 3.6236 12.5519 3.96902C13.3501 4.31444 14.0461 4.78416 14.64 5.37819C15.234 5.97208 15.7038 6.66805 16.0492 7.4661C16.3946 8.26416 16.5673 9.12006 16.5673 10.0338C16.5673 10.9476 16.3946 11.8036 16.0492 12.6019C15.7038 13.4003 15.234 14.0964 14.64 14.6903C14.0461 15.2843 13.3501 15.754 12.5519 16.0994C11.7538 16.4449 10.8979 16.6176 9.98396 16.6176Z" fill="#555555"/>
</svg>
