<svg width="111" height="30" viewBox="0 0 111 30" fill="none" xmlns="http://www.w3.org/2000/svg">
<path d="M30 15C30 23.2853 23.2853 30 15 30C6.71473 30 0 23.2853 0 15C0 6.71473 6.71473 0 15 0C23.2853 0 30 6.71473 30 15Z" fill="white"/>
<path d="M22.0534 13.9564C19.6647 12.3341 16.6083 12.9971 15.0048 15.4329C13.6694 17.4736 11.6474 17.7276 10.8669 17.7276C8.30888 17.7276 6.56907 15.9313 6.04713 14.074C6.04713 14.074 6.03772 14.0363 6.03302 14.0222C6.02832 14.0034 6.02361 13.9799 6.01891 13.9611C5.81672 13.1852 5.76499 12.8138 5.76499 11.9909C5.76499 7.54731 10.3261 2.6006 16.8857 2.6006C23.4452 2.6006 27.4562 7.71659 28.4484 10.5614C28.4296 10.5097 28.4108 10.458 28.3967 10.4109C26.4829 4.84354 21.207 0.84668 14.9954 0.84668C7.18035 0.84668 0.841797 7.18054 0.841797 15.0003C0.841797 21.9877 5.88255 27.9689 12.8747 27.9689C18.4515 27.9689 22.1992 24.842 23.9155 20.5348C24.8606 18.179 24.1929 15.4094 22.0534 13.9564Z" fill="#003964"/>
<path d="M28.5286 10.8339C27.701 8.05965 23.8264 2.5957 16.8766 2.5957C10.3123 2.5957 5.75586 7.54241 5.75586 11.986C5.75586 12.8089 5.80758 13.1803 6.00978 13.9562C5.92514 13.6176 5.88282 13.2791 5.88282 12.9452C5.88282 8.31827 10.5145 5.11608 15.2731 5.11608C21.7198 5.11608 26.9439 10.3402 26.9439 16.7869C26.9439 21.8371 24.038 26.2148 19.8154 28.3167C25.2606 26.3465 29.1493 21.1318 29.1493 15.0048C29.1493 13.5565 28.9565 12.2775 28.5286 10.8386" fill="#ED1A3B"/>
<path d="M55.7354 16.2861V18.1318H48.3525V24.3047H46.0967V18.1318H38.7959V16.2861H55.7354ZM53.6641 6.72949V14.1123H40.8672V6.72949H53.6641ZM43.1025 8.55469V12.3281H51.3877V8.55469H43.1025ZM72.4082 5.80664V19.1982H70.1113V5.80664H72.4082ZM72.9209 22.1104V23.9561H60.1445V17.8447H62.4414V22.1104H72.9209ZM62.2979 7.0166C65.1074 7.0166 67.2812 8.96484 67.2812 11.6514C67.2812 14.3994 65.1074 16.3066 62.2979 16.3066C59.4678 16.3066 57.2939 14.3994 57.2939 11.6514C57.2939 8.96484 59.4678 7.0166 62.2979 7.0166ZM62.2979 9.00586C60.7188 9.00586 59.5088 10.0518 59.5293 11.6514C59.5088 13.292 60.7188 14.3174 62.2979 14.3174C63.8359 14.3174 65.0459 13.292 65.0459 11.6514C65.0459 10.0518 63.8359 9.00586 62.2979 9.00586ZM90.168 14.2148V16.0195H84.6719V20.2646H92.0547V22.1309H75.1152V20.2646H82.416V16.0195H77.166V7.16016H90.0244V8.98535H79.4424V14.2148H90.168ZM100.114 10.2363C100.114 13.6816 101.755 17.0654 104.708 18.3574L103.334 20.1826C101.232 19.1572 99.7554 17.1885 98.9658 14.7686C98.1558 17.3218 96.6484 19.4443 94.5156 20.5312L93.0801 18.6855C96.0947 17.2705 97.7764 13.7021 97.7969 10.2363V7.2832H100.114V10.2363ZM108.81 5.78613V24.3457H106.554V13.6201H102.657V11.7744H106.554V5.78613H108.81Z" fill="#555555"/>
</svg>
