<svg width="152" height="47" viewBox="0 0 152 47" fill="none" xmlns="http://www.w3.org/2000/svg">
<path d="M24 46.0342C37.2548 46.0342 48 35.7291 48 23.0171C48 10.3051 37.2548 0 24 0C10.7452 0 0 10.3051 0 23.0171C0 35.7291 10.7452 46.0342 24 46.0342Z" fill="white"/>
<path d="M34.8649 21.4078C31.191 18.9348 26.4791 19.9461 24.0074 23.6593C21.939 26.7597 18.8251 27.151 17.6154 27.151C13.6801 27.151 10.9919 24.4122 10.1929 21.5849C10.1929 21.5849 10.1779 21.5333 10.1705 21.5037C10.163 21.4742 10.1555 21.4447 10.1481 21.4078C9.83443 20.2266 9.75976 19.6656 9.75976 18.4107C9.75976 11.6414 16.7865 4.10436 26.9048 4.10436C37.023 4.10436 43.191 11.8997 44.7218 16.233C44.6919 16.1592 44.6695 16.078 44.6397 16.0041C41.6975 7.5296 33.5656 1.43945 24 1.43945C11.9477 1.43945 2.18042 11.0951 2.18042 23.0023C2.18042 33.6471 9.94644 42.7639 20.7218 42.7639C29.3167 42.7639 35.0889 38.0025 37.7398 31.4399C39.196 27.8523 38.1655 23.6298 34.8649 21.4151V21.4078Z" fill="#003863"/>
<path d="M44.8489 16.6612C43.572 12.4313 37.6056 4.11182 26.8974 4.11182C16.7792 4.11182 9.75244 11.6488 9.75244 18.4181C9.75244 19.6731 9.83458 20.2415 10.1407 21.4152C10.0063 20.8985 9.93912 20.3817 9.93912 19.8798C9.93912 12.83 17.0779 7.94308 24.4183 7.94308C34.3498 7.94308 42.4071 15.9083 42.4071 25.7263C42.4071 33.4257 37.9267 40.0843 31.4152 43.2881C39.8084 40.291 45.8047 32.3406 45.8047 23.0097C45.8047 20.8025 45.506 18.8537 44.8414 16.6612H44.8489Z" fill="#E4032E"/>
<path d="M80.874 25.0278V27.4009H71.3818V35.3374H68.4814V27.4009H59.0947V25.0278H80.874ZM78.2109 12.7407V22.2329H61.7578V12.7407H78.2109ZM64.6318 15.0874V19.939H75.2842V15.0874H64.6318ZM102.311 11.5542V28.772H99.3574V11.5542H102.311ZM102.97 32.5161V34.8892H86.543V27.0317H89.4961V32.5161H102.97ZM89.3115 13.1099C92.9238 13.1099 95.7188 15.6147 95.7188 19.0688C95.7188 22.6021 92.9238 25.0542 89.3115 25.0542C85.6729 25.0542 82.8779 22.6021 82.8779 19.0688C82.8779 15.6147 85.6729 13.1099 89.3115 13.1099ZM89.3115 15.6675C87.2812 15.6675 85.7256 17.0122 85.752 19.0688C85.7256 21.1782 87.2812 22.4966 89.3115 22.4966C91.2891 22.4966 92.8447 21.1782 92.8447 19.0688C92.8447 17.0122 91.2891 15.6675 89.3115 15.6675ZM125.145 22.3647V24.6851H118.078V30.1431H127.57V32.5425H105.791V30.1431H115.178V24.6851H108.428V13.2944H124.96V15.6411H111.354V22.3647H125.145ZM137.933 17.2495C137.933 21.6792 140.042 26.0298 143.839 27.6909L142.072 30.0376C139.37 28.7192 137.471 26.188 136.456 23.0767C135.415 26.3594 133.477 29.0884 130.734 30.4858L128.889 28.1128C132.765 26.2935 134.927 21.7056 134.953 17.2495V13.4526H137.933V17.2495ZM149.112 11.5278V35.3901H146.212V21.6001H141.202V19.2271H146.212V11.5278H149.112Z" fill="white"/>
</svg>
